<?xml version="1.0" encoding="UTF-8"?>
<!DOCTYPE svg PUBLIC "-//W3C//DTD SVG 1.1//EN" "http://www.w3.org/Graphics/SVG/1.1/DTD/svg11.dtd">
<!-- Creator: CorelDRAW 2019 (64-Bit) -->
<svg xmlns="http://www.w3.org/2000/svg" xml:space="preserve" width="3.54626in" height="1.49911in" version="1.1" style="shape-rendering:geometricPrecision; text-rendering:geometricPrecision; image-rendering:optimizeQuality; fill-rule:evenodd; clip-rule:evenodd"
viewBox="0 0 3679.74 1555.53"
 xmlns:xlink="http://www.w3.org/1999/xlink">
 <defs>
  <style type="text/css">
   <![CDATA[
    .fil1 {fill:#06B1B5}
    .fil0 {fill:#76787A}
   ]]>
  </style>
 </defs>
 <g id="Layer_x0020_1">
  <metadata id="CorelCorpID_0Corel-Layer"/>
  <g id="_2042989394480">
   <path class="fil0" d="M899.49 0.17l197.64 -0.17 -8.22 725.72c1.61,76.55 3.23,153.11 4.82,229.65 0.81,39.02 22.53,65.68 63.32,65.68l604.49 0 -126.94 -189.42c-4.92,-6.3 -21.23,-30.17 -48.89,-70.96l185.98 -240.71c15.67,-20.56 34.77,-46.09 56.63,-76.59l8.43 -11.79 297.19 0 -215.36 261.13 -54.27 69.96c44.95,66.68 159.54,218.75 343.73,456.17 -246.96,0 -818.25,-5.7 -1065.14,0 -122.38,2.82 -243.47,-101.8 -246.82,-231.3 -8.48,-327.8 3.4,-656.85 3.4,-987.36z"/>
   <path class="fil1" d="M2292.04 426.25l299.03 0c338.75,0 389.27,47.35 491.37,379.9 34.75,113.2 60.03,214.91 216.97,219.16l179.91 0.05c0.47,-110.96 1.29,-225.28 1.75,-336.24 -2.81,-38.59 -25.22,-58.48 -62.39,-64.28l-59.88 0 -152.1 0 -78 0 -109.26 -198.58 416.25 0c134.8,0 245.27,110.3 244.04,245.08l-4.99 546.84 -419.05 0.76c-222.35,0.39 -288.21,-106.91 -364.82,-349.53 -39.72,-125.78 -53.95,-246.72 -211.9,-244.31l-190.52 -0.26 -0.52 122.54 -0.64 152.1c-0.04,20.14 -0.08,40.27 -0.12,60.41 4.47,38.27 24.34,59.51 61.03,62.14l279.6 0 117.62 197.49 -334.95 336.04 -323.81 0 336.6 -334.95 -90.83 0c-134.78,0 -244.61,-110.28 -244.04,-245.08l1.28 -304.19 2.38 -245.08z"/>
   <polygon class="fil0" points="-0,2.15 189.95,2.02 192.49,961.84 -0,961.84 "/>
   <path class="fil1" d="M3197.62 3.43l227.15 -0.03 3.04 224.82 -230.18 0c0,-60.99 0,-121.98 0,-182.97 4.55,-5.59 5.53,-11.16 0,-16.75l0 -25.07z"/>
   <path class="fil0" d="M732.68 0.17l-197.64 -0.17 8.22 725.72c-1.61,76.55 -3.22,153.1 -4.82,229.65 -0.8,39.02 -22.53,65.68 -63.32,65.68l-475.12 0 0 195.91c37.71,0.4 451.57,1 489.26,1.88 122.38,2.82 243.47,-101.8 246.82,-231.3 8.49,-327.8 -3.4,-656.85 -3.4,-987.36z"/>
  </g>
 </g>
</svg>
