<?xml version="1.0" encoding="UTF-8"?>
<!DOCTYPE svg PUBLIC "-//W3C//DTD SVG 1.1//EN" "http://www.w3.org/Graphics/SVG/1.1/DTD/svg11.dtd">
<!-- Creator: CorelDRAW 2019 (64-Bit) -->
<svg xmlns="http://www.w3.org/2000/svg" xml:space="preserve" width="3.58272in" height="1.41771in" version="1.1" style="shape-rendering:geometricPrecision; text-rendering:geometricPrecision; image-rendering:optimizeQuality; fill-rule:evenodd; clip-rule:evenodd"
viewBox="0 0 3677.33 1455.15"
 xmlns:xlink="http://www.w3.org/1999/xlink">
 <defs>
  <style type="text/css">
   <![CDATA[
    .fil0 {fill:#06B1B5}
    .fil1 {fill:#76787A}
   ]]>
  </style>
 </defs>
 <g id="Layer_x0020_1">
  <metadata id="CorelCorpID_0Corel-Layer"/>
  <path class="fil0" d="M2304.66 338.09l295.79 0c335.09,0 385.06,46.84 486.05,375.79 34.38,111.98 59.38,212.58 214.62,216.79l177.96 0.05c0.46,-109.76 1.27,-222.84 1.73,-332.6 -2.78,-38.17 -24.94,-57.85 -61.71,-63.58l-59.23 0 -150.45 0 -77.15 0 -108.08 -196.43 411.74 0c133.34,0 242.61,109.11 241.4,242.42l-4.94 540.92 -414.52 0.75c-219.94,0.38 -285.09,-105.75 -360.88,-345.74 -39.29,-124.41 -53.36,-244.05 -209.6,-241.66l-188.46 -0.25 -0.51 121.21 -0.63 150.45c-0.04,19.92 -0.08,39.84 -0.12,59.75 4.42,37.85 24.07,58.86 60.37,61.46l276.57 0 116.34 195.35 -331.33 332.4 -320.3 0 332.96 -331.32 -89.84 0c-133.32,0 -241.96,-109.09 -241.4,-242.42l1.27 -300.9 2.35 -242.42z"/>
  <path class="fil0" d="M3200.44 0.03l224.69 -0.03 3.01 222.39 -227.69 0c0,-74.14 0,-148.29 0,-222.36z"/>
  <path class="fil1" d="M1080.44 341.05l-3.31 292.42c1.59,75.72 3.2,151.45 4.77,227.16 0.8,38.6 22.29,64.97 62.63,64.97l597.94 0 -125.56 -187.37c-4.87,-6.24 -21,-29.85 -48.36,-70.19l252.33 -330.89 293.97 0 -270.71 332.86c44.47,65.96 157.81,216.39 340.01,451.23 -244.29,0 -809.39,-5.64 -1053.61,0 -121.06,2.79 -240.83,-100.7 -244.15,-228.8 -4.75,-183.39 -3.04,-367.18 -0.67,-551.4l194.72 0z"/>
  <polygon class="fil1" points="189,341.05 190.41,873.9 -0,873.9 -0,341.05 "/>
  <path class="fil1" d="M534.07 341.05l3.31 292.42c-1.59,75.72 -3.18,151.44 -4.77,227.16 -0.8,38.6 -22.29,64.97 -62.63,64.97l-469.98 0 0 193.79c37.3,0.4 446.68,0.99 483.97,1.85 121.06,2.79 240.83,-100.7 244.15,-228.8 4.75,-183.39 3.05,-367.18 0.68,-551.4l-194.73 0z"/>
 </g>
</svg>
