<?xml version="1.0" encoding="UTF-8"?>
<!DOCTYPE svg PUBLIC "-//W3C//DTD SVG 1.1//EN" "http://www.w3.org/Graphics/SVG/1.1/DTD/svg11.dtd">
<!-- Creator: CorelDRAW 2019 (64-Bit) -->
<svg xmlns="http://www.w3.org/2000/svg" xml:space="preserve" width="5.36203in" height="1.18285in" version="1.1" style="shape-rendering:geometricPrecision; text-rendering:geometricPrecision; image-rendering:optimizeQuality; fill-rule:evenodd; clip-rule:evenodd"
viewBox="0 0 5341.42 1178.3"
 xmlns:xlink="http://www.w3.org/1999/xlink">
 <defs>
  <style type="text/css">
   <![CDATA[
    .fil1 {fill:#06B1B5}
    .fil0 {fill:#76787A}
    .fil2 {fill:#06B1B5;fill-rule:nonzero}
   ]]>
  </style>
 </defs>
 <g id="Layer_x0020_1">
  <metadata id="CorelCorpID_0Corel-Layer"/>
  <g id="_2315273529360">
   <path class="fil0" d="M2297.82 0.2l218.06 -0.16 -7.89 696.71 10.75 475.35 -220.92 0 0 -1171.89zm229.83 730.1l178.55 -231.09c15.04,-19.74 33.38,-44.25 54.37,-73.53l8.09 -11.32 285.31 0 -206.75 250.69 -52.1 67.16c43.28,64.2 153.79,210.84 331.5,439.88l-280.37 0c-13.06,-19.62 -24.8,-37.1 -35.29,-52.5 -24.18,-35.65 -46.9,-67.17 -67.18,-93.91l-169.19 -227.27c-4.72,-6.05 -20.38,-28.97 -46.94,-68.12z"/>
   <path class="fil0" d="M3229.37 407.94l530.04 0c118.62,0 217.6,88.28 234.52,202.38l0.04 562.35c-106.32,-23.33 -189.6,-120.32 -189.6,-233.38 0,-91.65 0,-183.3 0,-274.96 0,-37.27 -21.74,-57.27 -57.7,-64.28l-60.81 0 -147.14 0 -118.54 0 0 118.54 0 147.14c0.04,19.48 0.09,38.96 0.13,58.44 4.48,37.02 23.78,57.57 59.29,60.11l231.26 0 147.21 192.1 -392.91 0c-130.39,0 -237.08,-106.68 -237.08,-237.08l0 -294.26 1.3 -237.08z"/>
   <path class="fil0" d="M4576.66 407.94l530.04 0c118.62,0 217.6,88.28 234.52,202.38l0.2 566.32c-106.32,-23.33 -189.77,-124.3 -189.77,-237.36 0,-91.65 0,-183.3 0,-274.96 0,-37.27 -21.74,-57.27 -57.7,-64.28l-60.81 0 -147.14 0 -118.54 0 0 118.54 0 147.14c0.04,19.48 0.09,38.96 0.13,58.44 4.48,37.02 23.78,57.57 59.29,60.11l231.26 0 147.21 192.1 -392.91 0c-130.39,0 -237.08,-106.68 -237.08,-237.08l0 -294.26 1.3 -237.08z"/>
   <polygon class="fil0" points="4173.7,0.16 4391.76,0 4394.68,1178.3 4173.7,1178.3 "/>
   <path class="fil1" d="M780.11 411.32l287.07 0c325.21,0 373.71,45.46 471.72,364.71 33.36,108.68 57.63,206.31 208.29,210.4l172.72 0.05c0.45,-106.53 1.24,-216.27 1.68,-322.8 -2.7,-37.05 -24.21,-56.14 -59.89,-61.71l-57.49 0 -146.02 0 -74.88 0 -104.89 -190.64 399.6 0c129.41,0 235.46,105.89 234.29,235.28l-4.79 524.98 -402.3 0.73c-213.46,0.37 -276.69,-102.63 -350.24,-335.55 -38.13,-120.75 -51.79,-236.85 -203.42,-234.54l-182.9 -0.25 -0.5 117.64 -0.62 146.02c-0.04,19.33 -0.08,38.66 -0.12,57.99 4.29,36.74 23.36,57.13 58.59,59.65l268.42 0 145.29 190.64 -428.85 0c-129.39,0 -234.83,-105.87 -234.29,-235.28l1.23 -292.03 2.28 -235.28z"/>
   <path class="fil2" d="M769.37 0.43l-0.78 185.39 -563.46 0 -4.15 983.18 -200.97 0 4.93 -1168.57 764.44 0zm-131.02 411.55l-0.8 190 -444.27 0 0.8 -190 444.27 0z"/>
  </g>
 </g>
</svg>
