<svg id="Layer_1" data-name="Layer 1" xmlns="http://www.w3.org/2000/svg" viewBox="0 0 1609 356"><defs><style>.cls-1{fill:#05b1b5;}.cls-2{fill:#fefefe;}.cls-3{fill:#77787a;}</style></defs><title>F45435667</title><path class="cls-1" d="M0,0H230.49c1,14.63-.06,29.33.55,44,.18,4,.2,7.91.19,11.87-47.09.12-94.18,0-141.27.06-9.53-.33-19,.83-28.54.58-.77,19.5-.46,39-.56,58.53,0,3.2.27,6.39.47,9.58,43.45-.1,86.91.13,130.36-.12.24,19-.17,38,0,57-5.91.19-11.8.9-17.72.72q-46,0-91.91,0c-6.94.19-13.84-.69-20.77-.69-.37,13.85-.1,27.71-.22,41.56-.8,13.59-.47,27.21-.61,40.82,0,29.56-.27,59.12-.22,88.68-14.41.24-28.8-1.47-43.21-.39-5.66.45-11.34.42-17,.4Z" transform="translate(0.03 0.05)"/><path class="cls-1" d="M634.23,349.88a3.49,3.49,0,0,1-3.5,3.46c-40.9-.15-81.81.14-122.71,0-18.1-.39-37-3.59-52.11-14.29-15.3-10.45-25.07-26.9-32.45-43.5-9.78-21.45-16-44.25-23-66.69-2.71-9.38-6.08-18.71-11.49-26.9A41.84,41.84,0,0,0,377,189.64a39.27,39.27,0,0,0-15.34-6.48,57.92,57.92,0,0,0-7.66-.86c-1,0-2-.05-2.95-.07-3.73,0-7.56-.35-11.28-.11-15,.1-30,0-45,.06a3.49,3.49,0,0,0-3.47,3.47c0,4.77-.1,9.53-.41,14.29v.2q0,37.46-.1,74.93c0,6.76,1.9,14.38,7.85,18.35,5.58,4,12.81,3.09,19.28,3.19,23.27.13,46.57-.22,69.83.14a3.51,3.51,0,0,1,2.61,1.23c3.93,4.62,7.38,9.66,11.11,14.46,9.1,11.93,18.13,23.92,27.32,35.78l0,.06a3.49,3.49,0,0,1-2.84,5.54c-41.33-.07-82.67,0-124,0-19.38,0-38.26-9.3-50.93-23.82a70,70,0,0,1-17.29-39.51q-1.22-24.13-.82-48.32v-.26c1.12-11.91.62-23.89.76-35.83q.23-22.5.15-45c.18-10.94.78-21.93.39-32.87a3.49,3.49,0,0,1,3.44-3.61c28.71-.34,57.44,0,86.16-.13,19.06,0,38.21.41,57,3.59,11.73,2.24,23.53,5.71,33.35,12.71,13.8,9.23,22.57,24,29.3,38.77,9.91,22.55,16.89,46.21,24.13,69.7,4.26,12.58,9.21,25.7,19.26,34.88,10.13,9.5,24.42,13.14,38,13.34,16.49,0,33,.29,49.46-.4a3.49,3.49,0,0,0,3.34-3.47c.17-25.84.36-51.68.12-77.52-.21-8,1.91-16.62-1.81-24.13-2.88-6.48-10.16-9.57-16.85-10.25a4,4,0,0,0-.6,0c-16.19,1.11-32.45.29-48.67.54-10.71-.25-21.47.57-32.13-.57a3.46,3.46,0,0,1-2.68-1.85c-8.84-16.88-18.45-33.36-27.39-50.19a3.5,3.5,0,0,1,3.09-5.12q47-.06,94,0c9.41.1,18.83-.26,28.23.34a71.08,71.08,0,0,1,48,27.11c7.42,9.84,12.86,21.62,13.73,34v.28c.13,29.6,0,59.19,0,88.78" transform="translate(0.03 0.05)"/><path class="cls-2" d="M230.46,0h1027c-1.65,3.78-.87,8-1,12q0,171.66,0,343.32c22.17,0,44.35.05,66.53,0q-.43-163.13-.82-326.24c-.24-9.67.45-19.38-.5-29H1609V356H0v-3.43c5.67,0,11.35.05,17-.4,14.41-1.08,28.8.63,43.21.39,0-29.56.19-59.12.22-88.68.14-13.61-.19-27.23.61-40.82.12-13.85-.15-27.71.22-41.56,6.93,0,13.83.88,20.77.69q46,0,91.91,0c5.92.18,11.81-.53,17.72-.72-.15-19,.26-38,0-57-43.45.25-86.91,0-130.36.12-.2-3.19-.46-6.38-.47-9.58.1-19.51-.21-39,.56-58.53,9.52.25,19-.91,28.54-.58,47.09,0,94.18.06,141.27-.06,0-4,0-7.92-.19-11.87-.61-14.65.47-29.35-.55-44M691.54,1q.09,176.24,0,352.47,33.23-.1,66.44,0c-.81-48.17-2.2-96.33-3.09-144.5q1.17-104,2.39-207.92c-21.92-.07-43.83,0-65.74,0M972.09,123.23q-.52,80.36-.35,160.72A71.52,71.52,0,0,0,1043,354.66q59.14,0,118.28,0c-14.38-19.4-29.47-38.28-43.87-57.67-23.17-.37-46.36,0-69.54-.18a18.79,18.79,0,0,1-13.22-5.56,22.9,22.9,0,0,1-5.06-15.28c0-31.62-.07-63.25,0-94.87q47.67,0,95.36,0a22.84,22.84,0,0,1,14.06,4.82c4.22,3.33,6.25,8.79,6.2,14.07.13,28.8-.13,57.62.13,86.43,1,31.89,26,60.51,57,67.23q0-81.34,0-162.68c.55-11.64-3.64-23-9.43-32.92-12.28-20.85-35.72-34.51-59.94-34.76-53.64-.08-107.28,0-160.92,0m405.79,0q-.63,80.39-.4,160.78A71.75,71.75,0,0,0,1448,354.65c39.7.08,79.41,0,119.12,0-14.09-18.85-28.69-37.31-42.84-56.12-.78-1.07-1.76-2.09-3.21-1.76-22,.06-44,0-66.08,0-5.48,0-11.26-1.68-14.93-5.94-3.46-4.14-4.84-9.71-4.7-15,0-31.57-.15-63.15.05-94.72,31.84-.18,63.69,0,95.54-.09a22.56,22.56,0,0,1,14,5c4.48,3.5,6.26,9.42,6.14,14.92q0,41,0,82c-.36,33.2,24.53,64.51,56.89,71.82q.18-85.44,0-170.89c-2-15.73-10.16-30.45-21.67-41.28A71.38,71.38,0,0,0,1538,123.27q-80.07-.08-160.13,0M234.1,124.56c.7,12.12,0,24.3-.22,36.43q.08,22.5-.15,45c-.14,12,.36,24-.77,36q-.36,24.24.82,48.45a70,70,0,0,0,17.29,39.51c12.67,14.52,31.55,23.78,50.93,23.82,43.65.07,87.3,0,131,0-1.41-1.85-2.78-3.73-4.14-5.61-9.19-11.86-18.22-23.85-27.32-35.78-4.05-5.22-7.78-10.71-12.14-15.66-23.79-.41-47.61,0-71.41-.17-6.47-.1-13.7.84-19.28-3.19-6-4-7.82-11.59-7.85-18.35q0-37.51.1-75c.39-5.94.42-11.89.43-17.84,16.21-.12,32.41,0,48.61-.08a125.8,125.8,0,0,1,20.11.8,41.25,41.25,0,0,1,28.88,19.07c5.41,8.19,8.78,17.52,11.49,26.9,7,22.44,13.22,45.24,23,66.69,7.38,16.6,17.15,33.05,32.45,43.5,15.06,10.7,34,13.9,52.11,14.29,42.06.11,84.12-.2,126.18,0,.08-7.14,0-14.3.77-21.41,0-18.82-.45-38-.12-57,.09-29.64.18-59.28,0-88.92-.84-12.46-6.29-24.29-13.74-34.17a71.08,71.08,0,0,0-48-27.11c-9.4-.6-18.82-.24-28.23-.34q-49.91,0-99.8,0c9.95,19.16,21,37.78,30.92,56.93,11.26,1.46,22.64.53,34,.79,16.32-.25,32.68.58,49-.56,6.77.62,14.23,3.7,17.15,10.28,3.72,7.51,1.6,16.11,1.81,24.13.25,27,0,53.89-.14,80.84-17.58.88-35.18.52-52.78.55-13.58-.2-27.87-3.84-38-13.34-10.05-9.18-15-22.3-19.26-34.88-7.24-23.49-14.22-47.15-24.13-69.7-6.73-14.81-15.5-29.54-29.3-38.77-9.82-7-21.62-10.47-33.35-12.71-18.83-3.18-38-3.55-57-3.59-29.93.12-59.86-.24-89.77.18m599.14.64c-12.25,17.88-26,34.69-39.07,51.93-9.82,12.55-19.37,25.3-29.29,37.78-1.28,1.91-3.2,3.58-3.78,5.84,8.37,12.79,17.44,25.12,26.64,37.33C800,274.55,812.3,291,824.45,307.48c11.56,14.77,21.86,30.47,32.36,46,28.11-.23,56.23,0,84.34-.1q-16.49-21.31-32.91-42.66c-22.63-29.68-45.62-59.11-66.88-89.8,12.76-17,26.39-33.28,39.94-49.64,12.51-15.44,25.43-30.55,37.85-46.06C890.51,125.13,861.88,125.19,833.24,125.2Z" transform="translate(0.03 0.05)"/><path class="cls-3" d="M1257.53,0h64.24c1,9.64.26,19.35.5,29q.43,163.13.82,326.24c-22.18.07-44.36,0-66.53,0q0-171.66,0-343.32C1256.66,8,1255.88,3.78,1257.53,0Z" transform="translate(0.03 0.05)"/><path class="cls-3" d="M691.57,1c21.91,0,43.82,0,65.74,0Q756,105,754.92,209c.89,48.17,2.28,96.33,3.09,144.5q-33.22,0-66.44,0Q691.66,177.23,691.57,1Z" transform="translate(0.03 0.05)"/><path class="cls-3" d="M972.12,123.28c53.64.07,107.28,0,160.92,0,24.22.25,47.66,13.91,59.94,34.76,5.79,9.92,10,21.28,9.43,32.92q-.06,81.35,0,162.68c-31-6.72-56-35.34-57-67.23-.26-28.81,0-57.63-.13-86.43,0-5.28-2-10.74-6.2-14.07a22.84,22.84,0,0,0-14.06-4.82q-47.68,0-95.36,0c-.11,31.62,0,63.25,0,94.87a22.9,22.9,0,0,0,5.06,15.28,18.79,18.79,0,0,0,13.22,5.56c23.18.18,46.37-.19,69.54.18,14.4,19.39,29.49,38.27,43.87,57.67q-59.13,0-118.28,0A71.52,71.52,0,0,1,971.77,284Q971.67,203.63,972.12,123.28Z" transform="translate(0.03 0.05)"/><path class="cls-3" d="M1377.91,123.29q80.05.06,160.13,0a71.38,71.38,0,0,1,48.24,19.35c11.51,10.83,19.63,25.55,21.67,41.28q.12,85.44,0,170.89c-32.36-7.31-57.25-38.62-56.89-71.82q0-41,0-82c.12-5.5-1.66-11.42-6.14-14.92a22.56,22.56,0,0,0-14-4.95c-31.85.1-63.7-.09-95.54.09-.2,31.57-.07,63.15,0,94.72-.14,5.31,1.24,10.88,4.7,15,3.67,4.26,9.45,6,14.93,5.94,22,0,44.06,0,66.08,0,1.45-.33,2.43.69,3.21,1.76,14.15,18.81,28.75,37.27,42.84,56.12-39.71-.05-79.42,0-119.12,0a71.75,71.75,0,0,1-70.51-70.63Q1377.35,203.69,1377.91,123.29Z" transform="translate(0.03 0.05)"/><path class="cls-3" d="M833.27,125.25c28.64,0,57.27-.07,85.91,0-12.42,15.51-25.34,30.62-37.85,46.06C867.78,187.69,854.15,204,841.39,221c21.26,30.69,44.25,60.12,66.88,89.8q16.46,21.33,32.91,42.66c-28.11.07-56.23-.13-84.34.1-10.5-15.53-20.8-31.23-32.36-46C812.33,291,800,274.6,787.77,258.13c-9.2-12.21-18.27-24.54-26.64-37.33.58-2.26,2.5-3.93,3.78-5.84,9.92-12.48,19.47-25.23,29.29-37.78C807.31,159.94,821,143.13,833.27,125.25Z" transform="translate(0.03 0.05)"/></svg>