<?xml version="1.0" encoding="UTF-8"?>
<!DOCTYPE svg PUBLIC "-//W3C//DTD SVG 1.1//EN" "http://www.w3.org/Graphics/SVG/1.1/DTD/svg11.dtd">
<!-- Creator: CorelDRAW 2019 (64-Bit) -->
<svg xmlns="http://www.w3.org/2000/svg" xml:space="preserve" width="3.52802in" height="1.08832in" version="1.1" style="shape-rendering:geometricPrecision; text-rendering:geometricPrecision; image-rendering:optimizeQuality; fill-rule:evenodd; clip-rule:evenodd"
viewBox="0 0 3523.84 1087.03"
 xmlns:xlink="http://www.w3.org/1999/xlink">
 <defs>
  <style type="text/css">
   <![CDATA[
    .fil1 {fill:#06B1B5}
    .fil0 {fill:#76787A}
   ]]>
  </style>
 </defs>
 <g id="Layer_x0020_1">
  <metadata id="CorelCorpID_0Corel-Layer"/>
  <path class="fil0" d="M1051.39 7.43l-3.22 284.56c1.55,73.68 3.11,147.38 4.64,221.05 0.78,37.56 21.69,63.22 60.95,63.22l581.87 0 -122.19 -182.33c-4.73,-6.07 -20.44,-29.04 -47.06,-68.3l245.54 -321.99 286.07 0 -263.44 323.91c43.27,64.19 153.57,210.57 330.87,439.1 -237.72,0 -787.63,-5.49 -1025.28,0 -117.8,2.72 -234.36,-97.99 -237.58,-222.65 -4.62,-178.46 -2.96,-357.3 -0.66,-536.57l189.49 0z"/>
  <polygon class="fil0" points="183.92,7.43 185.29,525.96 -0,525.96 -0,7.43 "/>
  <path class="fil0" d="M519.71 7.43l3.22 284.56c-1.55,73.68 -3.1,147.37 -4.64,221.05 -0.77,37.56 -21.69,63.22 -60.95,63.22l-457.34 0 0 188.58c36.3,0.39 434.67,0.97 470.96,1.8 117.81,2.72 234.36,-97.99 237.58,-222.65 4.62,-178.46 2.97,-357.3 0.66,-536.57l-189.49 0z"/>
  <path class="fil1" d="M2188.06 0l287.84 0c326.08,0 370.81,35.18 469.08,355.28 33.45,108.96 61.68,217.27 212.75,221.36l173.18 0.05c0.45,-106.81 1.24,-216.85 1.69,-323.66 -2.71,-37.14 -24.27,-56.29 -60.05,-61.88l-57.64 0 -146.41 0 -75.08 0 -105.17 -191.15 400.67 0c129.76,0 236.09,106.18 234.91,235.91l-4.81 526.38 -403.37 0.73c-214.03,0.37 -277.43,-102.91 -351.17,-336.45 -38.23,-121.07 -51.93,-237.49 -203.97,-235.17l-183.39 -0.25 -0.5 117.95 -0.62 146.41c-0.04,19.38 -0.08,38.77 -0.12,58.15 4.3,36.83 23.42,57.28 58.75,59.81l269.14 0 113.22 190.1 -322.42 323.46 -311.69 0 324.01 -322.41 -87.43 0c-129.74,0 -235.46,-106.15 -234.91,-235.91l1.23 -292.81 2.29 -235.91z"/>
  <path class="fil1" d="M3227.27 477.44c-146.29,-7.07 -178.56,-10.65 -192.97,-187.27l153.64 0c21.63,0 39.32,17.7 39.32,39.32l0 147.95z"/>
 </g>
</svg>
